<?xml version="1.0" encoding="utf-8"?>
<!-- Generator: Adobe Illustrator 16.0.3, SVG Export Plug-In . SVG Version: 6.00 Build 0)  -->
<!DOCTYPE svg PUBLIC "-//W3C//DTD SVG 1.1//EN" "http://www.w3.org/Graphics/SVG/1.1/DTD/svg11.dtd">
<svg version="1.1" id="Ebene_1" xmlns="http://www.w3.org/2000/svg" xmlns:xlink="http://www.w3.org/1999/xlink" x="0px" y="0px"
	 width="48.667px" height="50px" viewBox="0 0 48.667 50" enable-background="new 0 0 48.667 50" xml:space="preserve">
<g>
	<polygon fill="#FFFFFF" points="4.947,9.407 7.184,10.255 11.21,5.433 17.034,8.178 24.137,2.866 26.629,7.919 35.195,4.494 
		41.877,12.517 45.959,10.287 45.395,28.495 7.184,32.958 	"/>
	<path d="M6.665,33.6L4.285,8.538L7.004,9.57l4.049-4.848l5.913,2.786l7.382-5.521l2.563,5.2l8.459-3.385l6.647,7.981l4.55-2.486
		l-0.611,19.712L6.665,33.6z M5.608,10.275l2.094,22.041l37.132-4.336l0.518-16.703l-3.614,1.974l-6.717-8.065l-8.672,3.468
		l-2.422-4.909l-6.825,5.104l-5.734-2.703l-4.004,4.796L5.608,10.275z"/>
</g>
<path fill="#FFB426" d="M39.656,22.097c0,3.867-6.948,7.004-15.521,7.004c-8.57,0-15.518-3.137-15.518-7.004
	c0-3.872,6.948-7.007,15.518-7.007C32.708,15.09,39.656,18.225,39.656,22.097z"/>
<path fill="none" stroke="#181716" stroke-miterlimit="10" d="M45.902,15.09"/>
<path d="M42.616,15.544c-1.806-0.674-4.281-1.32-6.128-1.763c4.556,1.477,7.522,3.709,7.522,6.156c0,4.323-9.239,7.974-20.176,7.974
	c-10.937,0-20.174-3.65-20.174-7.974c0-4.322,9.238-7.976,20.174-7.976c1.877,0,3.697,0.114,5.436,0.314
	c-2.745-1.571-6.049-1.338-8.037-1.396c-10.687,0.534-18.728,4.315-18.728,9.057c0,5.118,9.369,9.127,21.329,9.127
	c11.96,0,21.331-4.009,21.331-9.127C45.166,18.335,44.246,16.841,42.616,15.544z"/>
<g>
	<path fill="#FFFFFF" d="M45.435,13.475c-2.299,3.83-5.079,8.099-5.113,8.152l-0.589,0.904l-0.941-0.526l-4.893-2.739l-0.79,2.069
		l-0.137,0.357l-0.324,0.205l-3.683,2.333l-0.68,0.432l-0.639-0.489l-6.332-4.846l-3.283,3.361l-0.709,0.726l-0.811-0.612
		l-4.542-3.427l-0.333-0.25l-0.096-0.405l-1.546-6.564l-2.63,2.264l-1.381,1.188L5.5,13.851c-0.006-0.024-0.514-1.847-1.343-3.371
		c-0.712,1.282-1.312,3.578-1.593,6.43l4.576,3.245l4.982,6.37l9.752,1.96l6.063,12.478l-7.929-11.75l-8.238-1.016l-5.838-8.074
		L2.474,17.98c-0.268,3.992,0.084,8.895,1.582,13.671c1.905,6.075,6.046,13.171,15.022,14.815c-0.149-0.035-0.236-0.059-0.236-0.059
		s12.647,0.887,20.302-9.73c6.964-9.658,6.281-16.825,6.343-22.801C45.47,13.745,45.454,13.603,45.435,13.475z"/>
	<path d="M45.959,10.287c-2.341,4.17-6.604,10.711-6.604,10.711l-6.057-3.389l-1.267,3.315l-3.683,2.333l-7.145-5.468l-3.997,4.093
		l-4.542-3.427l-1.981-8.415l-4.07,3.504c0,0-0.885-3.226-2.339-4.969c-5.338,3.713-6.169,39.402,18.841,39.402
		C48.128,47.978,48.643,20.053,45.959,10.287z M39.145,36.677c-7.655,10.617-20.302,9.73-20.302,9.73s0.087,0.023,0.236,0.059
		c-8.977-1.645-13.117-8.74-15.022-14.815c-1.498-4.776-1.85-9.679-1.582-13.671l3.458,2.143l5.838,8.074l8.238,1.016l7.929,11.75
		l-6.063-12.478l-9.752-1.96l-4.982-6.37L2.563,16.91c0.282-2.852,0.881-5.147,1.593-6.43c0.83,1.524,1.337,3.347,1.343,3.371
		l0.485,1.757l1.381-1.188l2.63-2.264l1.546,6.564l0.096,0.405l0.333,0.25l4.542,3.427l0.811,0.612l0.709-0.726l3.283-3.361
		l6.332,4.846l0.639,0.489l0.68-0.432l3.683-2.333l0.324-0.205l0.137-0.357l0.79-2.069l4.893,2.739l0.941,0.526l0.589-0.904
		c0.034-0.054,2.814-4.322,5.113-8.152c0.019,0.128,0.035,0.27,0.053,0.401C45.425,19.852,46.109,27.019,39.145,36.677z"/>
</g>
<ellipse cx="31.799" cy="47.404" rx="12.79" ry="0.787"/>
</svg>
