<?xml version="1.0" encoding="utf-8"?>
<!-- Generator: Adobe Illustrator 15.1.0, SVG Export Plug-In  -->
<!DOCTYPE svg PUBLIC "-//W3C//DTD SVG 1.1//EN" "http://www.w3.org/Graphics/SVG/1.1/DTD/svg11.dtd" [
	<!ENTITY ns_flows "http://ns.adobe.com/Flows/1.0/">
]>
<svg version="1.1"
	 xmlns="http://www.w3.org/2000/svg" xmlns:xlink="http://www.w3.org/1999/xlink" xmlns:a="http://ns.adobe.com/AdobeSVGViewerExtensions/3.0/"
	 x="0px" y="0px" width="306px" height="50px" viewBox="0 0 306 50" overflow="visible" enable-background="new 0 0 306 50"
	 xml:space="preserve">
<defs>
</defs>
<g>
	<defs>
		<rect id="SVGID_1_" width="306.25" height="50"/>
	</defs>
	<clipPath id="SVGID_2_">
		<use xlink:href="#SVGID_1_"  overflow="visible"/>
	</clipPath>
	<path clip-path="url(#SVGID_2_)" fill="#FFFFFF" d="M91.667,22.039c0,1.615-0.22,3.121-0.659,4.518
		c-0.439,1.395-1.093,2.606-1.962,3.634c-0.868,1.027-1.957,1.84-3.265,2.436c-1.308,0.598-2.831,0.896-4.569,0.896h-8.954v14.458
		H68.15V10.874h12.799c1.79,0,3.357,0.269,4.7,0.804c1.343,0.535,2.463,1.29,3.358,2.265c0.895,0.974,1.562,2.15,2.001,3.528
		C91.447,18.849,91.667,20.371,91.667,22.039 M87.532,22.092c0-2.353-0.588-4.139-1.764-5.359c-1.177-1.22-2.95-1.83-5.32-1.83
		h-8.19v14.642h8.375c2.37,0,4.112-0.641,5.227-1.923C86.974,26.341,87.532,24.497,87.532,22.092"/>
	<polygon clip-path="url(#SVGID_2_)" fill="#FFFFFF" points="119.83,47.979 119.83,30.783 103.371,30.783 103.371,47.979 
		99.263,47.979 99.263,10.874 103.371,10.874 103.371,26.569 119.83,26.569 119.83,10.874 123.938,10.874 123.938,47.979 	"/>
	<path clip-path="url(#SVGID_2_)" fill="#FFFFFF" d="M154.287,47.979l-7.9-15.405h-9.481v15.405h-4.108V10.874h14.3
		c1.72,0,3.248,0.242,4.582,0.725c1.334,0.483,2.453,1.18,3.357,2.093c0.904,0.913,1.594,2.028,2.068,3.344
		c0.475,1.317,0.711,2.801,0.711,4.451c0,1.176-0.141,2.335-0.422,3.476c-0.281,1.141-0.725,2.186-1.33,3.134
		s-1.373,1.764-2.305,2.449c-0.931,0.684-2.054,1.168-3.371,1.447l8.638,15.985H154.287z M153.682,21.54
		c0-1.124-0.158-2.098-0.475-2.924c-0.316-0.824-0.776-1.513-1.382-2.066c-0.606-0.554-1.339-0.966-2.199-1.239
		c-0.861-0.271-1.844-0.408-2.95-0.408h-9.77v13.695h9.955c1.175,0,2.198-0.18,3.068-0.54c0.869-0.36,1.58-0.856,2.133-1.489
		c0.553-0.632,0.961-1.378,1.224-2.238C153.55,23.472,153.682,22.54,153.682,21.54"/>
	<path clip-path="url(#SVGID_2_)" fill="#FFFFFF" d="M186.236,47.979l-2.668-9.479h-11.514l-2.709,9.479h-6.35l10.965-37.104h7.627
		l10.93,37.104H186.236z M179.219,21.987l-0.514-1.897c-0.17-0.609-0.322-1.166-0.453-1.67l-0.342-1.265
		c-0.041-0.342-0.061-0.53-0.061-0.566c-0.023,0.052-0.08,0.243-0.17,0.573c-0.09,0.33-0.205,0.745-0.346,1.245
		c-0.143,0.5-0.302,1.055-0.473,1.664l-0.533,1.881l-3.035,10.701h8.928L179.219,21.987z"/>
	<path clip-path="url(#SVGID_2_)" fill="#FFFFFF" d="M211.754,42.423c0.93,0,1.82-0.089,2.672-0.265
		c0.852-0.174,1.637-0.408,2.357-0.697c0.719-0.289,1.373-0.622,1.961-1.001c0.588-0.377,1.068-0.767,1.436-1.172v-5.135h-7.426
		v-5.741h13.273v13.643c-0.686,0.859-1.52,1.68-2.502,2.462c-0.984,0.781-2.09,1.466-3.318,2.053
		c-1.23,0.589-2.568,1.059-4.017,1.41c-1.448,0.35-2.979,0.526-4.595,0.526c-2.688,0-5.004-0.479-6.953-1.436
		c-1.949-0.957-3.551-2.291-4.807-4.002c-1.254-1.712-2.182-3.745-2.777-6.097c-0.598-2.354-0.895-4.925-0.895-7.716
		c0-2.896,0.314-5.514,0.947-7.849s1.594-4.323,2.883-5.964c1.291-1.642,2.91-2.906,4.859-3.792c1.949-0.887,4.24-1.331,6.873-1.331
		c1.914,0,3.617,0.229,5.109,0.685c1.492,0.457,2.801,1.106,3.924,1.949c1.123,0.843,2.062,1.857,2.818,3.041
		c0.754,1.186,1.352,2.516,1.789,3.99l-5.871,2.16c-0.264-0.773-0.611-1.505-1.041-2.2c-0.43-0.693-0.965-1.298-1.605-1.816
		c-0.643-0.518-1.383-0.931-2.227-1.238c-0.842-0.307-1.809-0.461-2.896-0.461c-1.58,0-2.945,0.303-4.094,0.909
		c-1.15,0.605-2.1,1.47-2.846,2.594c-0.746,1.123-1.299,2.47-1.658,4.042c-0.359,1.571-0.541,3.331-0.541,5.28
		c0,1.932,0.182,3.703,0.541,5.318c0.359,1.616,0.922,3.002,1.686,4.161s1.721,2.063,2.869,2.712
		C208.834,42.099,210.191,42.423,211.754,42.423"/>
	<rect x="234.412" y="10.874" clip-path="url(#SVGID_2_)" fill="#FFFFFF" width="6.397" height="37.104"/>
	<polygon clip-path="url(#SVGID_2_)" fill="#FFFFFF" points="249.406,47.979 249.406,10.874 255.779,10.874 255.779,41.975 
		272.107,41.975 272.107,47.979 	"/>
	<polygon clip-path="url(#SVGID_2_)" fill="#FFFFFF" points="279.121,47.979 279.121,10.874 303.061,10.874 303.061,16.878 
		285.494,16.878 285.494,26.201 301.742,26.201 301.742,32.205 285.494,32.205 285.494,41.975 303.93,41.975 303.93,47.979 	"/>
	<polygon clip-path="url(#SVGID_2_)" fill="#FFFFFF" points="6.197,9.407 8.434,10.256 12.461,5.433 18.284,8.178 25.387,2.866 
		27.88,7.92 36.446,4.494 43.128,12.517 47.21,10.287 46.645,28.495 8.434,32.959 	"/>
	<path clip-path="url(#SVGID_2_)" d="M7.916,33.6L5.534,8.538l2.72,1.032l4.049-4.848l5.912,2.786l7.382-5.521l2.563,5.2l8.46-3.385
		l6.647,7.982l4.55-2.487l-0.611,19.712L7.916,33.6z M6.858,10.275l2.094,22.041l37.132-4.336l0.517-16.703l-3.614,1.974
		l-6.717-8.066l-8.672,3.468l-2.422-4.909l-6.825,5.104l-5.734-2.703l-4.004,4.796L6.858,10.275z"/>
	<path clip-path="url(#SVGID_2_)" fill="#FFB426" d="M40.906,22.097c0,3.867-6.948,7.004-15.521,7.004
		c-8.569,0-15.518-3.138-15.518-7.004c0-3.872,6.949-7.007,15.518-7.007C33.958,15.09,40.906,18.225,40.906,22.097"/>
	<path clip-path="url(#SVGID_2_)" d="M43.866,15.544c-1.806-0.674-4.281-1.32-6.128-1.763c4.556,1.477,7.523,3.709,7.523,6.157
		c0,4.323-9.239,7.973-20.176,7.973c-10.937,0-20.175-3.65-20.175-7.973c0-4.323,9.238-7.976,20.175-7.976
		c1.877,0,3.697,0.114,5.436,0.314c-2.745-1.571-6.05-1.337-8.037-1.395c-10.687,0.534-18.728,4.315-18.728,9.057
		c0,5.118,9.369,9.127,21.329,9.127c11.96,0,21.33-4.009,21.33-9.127C46.415,18.335,45.495,16.841,43.866,15.544"/>
	<path clip-path="url(#SVGID_2_)" fill="#FFFFFF" d="M46.685,13.475c-2.299,3.83-5.079,8.099-5.113,8.152l-0.589,0.905l-0.941-0.527
		l-4.893-2.739l-0.79,2.069l-0.137,0.358l-0.324,0.205l-3.683,2.333l-0.679,0.432l-0.639-0.49l-6.332-4.845l-3.283,3.361
		l-0.709,0.725l-0.811-0.612l-4.542-3.427l-0.332-0.25l-0.096-0.405l-1.546-6.564l-2.63,2.263l-1.381,1.189L6.75,13.851
		c-0.006-0.024-0.514-1.847-1.343-3.371c-0.713,1.282-1.312,3.578-1.594,6.43l4.577,3.245l4.982,6.37l9.752,1.96l6.063,12.477
		l-7.929-11.75l-8.239-1.015l-5.837-8.075L3.724,17.98c-0.268,3.992,0.085,8.894,1.582,13.671
		c1.905,6.075,6.046,13.171,15.023,14.814c-0.15-0.035-0.237-0.058-0.237-0.058s12.648,0.886,20.302-9.731
		c6.965-9.657,6.281-16.825,6.344-22.801C46.72,13.745,46.704,13.603,46.685,13.475"/>
	<path clip-path="url(#SVGID_2_)" d="M47.209,10.286c-2.341,4.17-6.605,10.711-6.605,10.711l-6.056-3.388l-1.267,3.315l-3.683,2.333
		l-7.145-5.468l-3.997,4.093l-4.541-3.427l-1.982-8.415l-4.07,3.504c0,0-0.885-3.225-2.34-4.969
		c-5.338,3.713-6.169,39.403,18.842,39.403C49.377,47.979,49.894,20.053,47.209,10.286 M40.395,36.677
		c-7.655,10.617-20.302,9.73-20.302,9.73s0.087,0.024,0.236,0.059c-8.976-1.644-13.117-8.739-15.022-14.814
		c-1.498-4.777-1.85-9.679-1.582-13.671l3.457,2.142l5.838,8.075l8.238,1.015l7.929,11.75l-6.063-12.477l-9.752-1.96l-4.982-6.37
		l-4.576-3.246c0.282-2.851,0.881-5.147,1.593-6.429c0.83,1.524,1.338,3.346,1.343,3.371l0.485,1.757l1.382-1.189l2.63-2.263
		l1.545,6.564l0.096,0.405l0.333,0.25l4.541,3.427l0.811,0.612l0.71-0.725l3.282-3.362l6.332,4.846l0.639,0.489l0.68-0.431
		l3.683-2.333l0.324-0.205l0.137-0.358l0.79-2.069l4.892,2.739l0.941,0.526l0.59-0.904c0.033-0.054,2.814-4.322,5.113-8.152
		c0.019,0.128,0.034,0.269,0.052,0.401C46.675,19.852,47.358,27.02,40.395,36.677"/>
	<path clip-path="url(#SVGID_2_)" d="M45.838,47.403c0,0.436-5.726,0.787-12.79,0.787c-7.063,0-12.789-0.352-12.789-0.787
		c0-0.434,5.726-0.782,12.789-0.782C40.112,46.621,45.838,46.97,45.838,47.403"/>
</g>
</svg>
