<?xml version="1.0" encoding="utf-8"?>
<!-- Generator: Adobe Illustrator 16.0.3, SVG Export Plug-In . SVG Version: 6.00 Build 0)  -->
<!DOCTYPE svg PUBLIC "-//W3C//DTD SVG 1.1//EN" "http://www.w3.org/Graphics/SVG/1.1/DTD/svg11.dtd">
<svg version="1.1" id="Ebene_1" xmlns="http://www.w3.org/2000/svg" xmlns:xlink="http://www.w3.org/1999/xlink" x="0px" y="0px"
	 width="306.25px" height="50px" viewBox="0 0 306.25 50" enable-background="new 0 0 306.25 50" xml:space="preserve">
<path d="M45.25,45.155c0,1.594-7.443,2.887-16.624,2.887c-9.182,0-12.251-1.292-12.251-2.887c0-1.591,3.07-2.874,12.251-2.874
	C37.807,42.282,45.25,43.564,45.25,45.155z"/>
<g>
	<path d="M91.667,22.04c0,1.615-0.22,3.121-0.659,4.517s-1.093,2.607-1.962,3.634c-0.869,1.027-1.958,1.84-3.265,2.437
		c-1.308,0.597-2.831,0.895-4.569,0.895h-8.954v14.458H68.15V10.874h12.798c1.791,0,3.357,0.269,4.701,0.804s2.462,1.29,3.358,2.265
		c0.895,0.975,1.562,2.15,2.001,3.528C91.447,18.849,91.667,20.372,91.667,22.04z M87.532,22.092c0-2.353-0.588-4.139-1.764-5.359
		c-1.177-1.22-2.95-1.83-5.32-1.83h-8.19v14.643h8.375c2.37,0,4.112-0.642,5.228-1.923C86.975,26.341,87.532,24.498,87.532,22.092z"
		/>
	<path d="M119.83,47.979V30.783h-16.459v17.196h-4.108V10.874h4.108v15.695h16.459V10.874h4.108v37.105H119.83z"/>
	<path d="M154.287,47.979l-7.9-15.405h-9.48v15.405h-4.108V10.874h14.299c1.721,0,3.248,0.242,4.583,0.725
		c1.334,0.483,2.453,1.181,3.357,2.094c0.904,0.913,1.594,2.027,2.068,3.344c0.475,1.317,0.711,2.801,0.711,4.451
		c0,1.176-0.141,2.335-0.422,3.476c-0.281,1.142-0.725,2.187-1.33,3.134c-0.605,0.948-1.373,1.765-2.304,2.449
		c-0.931,0.685-2.054,1.168-3.371,1.448l8.638,15.985H154.287z M153.681,21.54c0-1.124-0.158-2.098-0.474-2.924
		c-0.316-0.824-0.777-1.514-1.383-2.066c-0.605-0.554-1.339-0.966-2.199-1.238c-0.86-0.271-1.844-0.408-2.95-0.408h-9.77v13.694
		h9.955c1.176,0,2.199-0.18,3.068-0.54c0.869-0.359,1.58-0.855,2.133-1.488c0.553-0.632,0.961-1.378,1.224-2.238
		C153.55,23.471,153.681,22.54,153.681,21.54z"/>
	<path d="M186.236,47.979l-2.668-9.48h-11.514l-2.709,9.48h-6.35l10.965-37.105h7.627l10.93,37.105H186.236z M179.219,21.987
		l-0.514-1.897c-0.17-0.608-0.322-1.165-0.453-1.67l-0.342-1.265c-0.041-0.342-0.061-0.53-0.061-0.566
		c-0.023,0.053-0.08,0.243-0.17,0.573s-0.205,0.745-0.346,1.245c-0.143,0.5-0.301,1.055-0.473,1.664l-0.533,1.881l-3.035,10.701
		h8.928L179.219,21.987z"/>
	<path d="M211.754,42.422c0.93,0,1.82-0.088,2.672-0.264c0.852-0.175,1.637-0.408,2.357-0.697c0.719-0.29,1.373-0.623,1.961-1.001
		c0.588-0.377,1.068-0.768,1.436-1.172v-5.135h-7.426v-5.741h13.273v13.642c-0.686,0.86-1.52,1.681-2.502,2.462
		c-0.984,0.781-2.09,1.466-3.318,2.054c-1.23,0.589-2.568,1.059-4.016,1.409c-1.449,0.351-2.98,0.526-4.596,0.526
		c-2.688,0-5.004-0.479-6.953-1.435c-1.949-0.957-3.551-2.291-4.807-4.003c-1.254-1.712-2.182-3.744-2.777-6.097
		c-0.598-2.353-0.895-4.925-0.895-7.716c0-2.896,0.314-5.513,0.947-7.848s1.594-4.323,2.883-5.965
		c1.291-1.642,2.91-2.905,4.859-3.792s4.24-1.33,6.873-1.33c1.914,0,3.617,0.229,5.109,0.685c1.492,0.457,2.801,1.106,3.924,1.949
		s2.063,1.856,2.818,3.041c0.754,1.186,1.352,2.516,1.789,3.99l-5.871,2.159c-0.264-0.772-0.611-1.505-1.041-2.199
		c-0.43-0.693-0.965-1.299-1.605-1.816c-0.643-0.518-1.383-0.931-2.227-1.238c-0.842-0.307-1.809-0.461-2.896-0.461
		c-1.58,0-2.945,0.303-4.094,0.909c-1.15,0.605-2.1,1.47-2.846,2.594c-0.746,1.123-1.299,2.471-1.658,4.042s-0.541,3.331-0.541,5.28
		c0,1.932,0.182,3.704,0.541,5.319s0.922,3.002,1.686,4.161c0.764,1.158,1.721,2.063,2.869,2.712
		C208.834,42.098,210.191,42.422,211.754,42.422z"/>
	<path d="M234.412,47.979V10.874h6.398v37.105H234.412z"/>
	<path d="M249.406,47.979V10.874h6.373v31.102h16.328v6.004H249.406z"/>
	<path d="M279.121,47.979V10.874h23.939v6.005h-17.566v9.322h16.248v6.004h-16.248v9.771h18.436v6.004H279.121z"/>
</g>
<g>
	<polygon fill="#FFFFFF" points="6.197,9.407 8.434,10.255 12.46,5.433 18.284,8.178 25.387,2.866 27.879,7.919 36.445,4.494 
		43.127,12.517 47.209,10.287 46.645,28.495 8.434,32.958 	"/>
	<path d="M7.915,33.6L5.535,8.538L8.254,9.57l4.049-4.848l5.913,2.786l7.382-5.521l2.563,5.2l8.459-3.385l6.647,7.981l4.55-2.486
		l-0.611,19.712L7.915,33.6z M6.858,10.275l2.094,22.041l37.132-4.336l0.518-16.703l-3.614,1.974l-6.717-8.065l-8.672,3.468
		l-2.422-4.909l-6.825,5.104l-5.734-2.703l-4.004,4.796L6.858,10.275z"/>
</g>
<path fill="none" stroke="#181716" stroke-miterlimit="10" d="M47.152,15.09"/>
<path d="M43.866,15.544c-1.806-0.674-4.281-1.32-6.128-1.763c4.556,1.477,7.522,3.709,7.522,6.156c0,4.323-9.239,7.974-20.176,7.974
	c-10.937,0-20.174-3.65-20.174-7.974c0-4.322,9.238-7.976,20.174-7.976c1.877,0,3.697,0.114,5.436,0.314
	c-2.745-1.571-6.049-1.338-8.037-1.396c-10.687,0.534-18.728,4.315-18.728,9.057c0,5.118,9.369,9.127,21.329,9.127
	c11.96,0,21.331-4.009,21.331-9.127C46.416,18.335,45.496,16.841,43.866,15.544z"/>
<path fill="#F8B131" d="M38.108,20.796c0,3.149-5.658,5.704-12.639,5.704c-6.979,0-12.637-2.555-12.637-5.704
	c0-3.153,5.658-5.706,12.637-5.706C32.45,15.09,38.108,17.643,38.108,20.796z"/>
<g>
	<path fill="#FFFFFF" d="M46.685,13.475c-2.299,3.83-5.079,8.099-5.113,8.152l-0.589,0.904l-0.941-0.526l-4.893-2.739l-0.79,2.069
		l-0.137,0.357l-0.324,0.205l-3.683,2.333l-0.68,0.432l-0.639-0.489l-6.332-4.846l-3.283,3.361l-0.709,0.726l-0.811-0.612
		l-4.542-3.427l-0.333-0.25l-0.096-0.405l-1.546-6.564l-2.63,2.264l-1.381,1.188L6.75,13.851c-0.006-0.024-0.514-1.847-1.343-3.371
		c-0.712,1.282-1.312,3.578-1.593,6.43l4.576,3.245l4.982,6.37l9.752,1.96l6.063,12.478l-7.929-11.75l-8.238-1.016l-5.838-8.074
		L3.724,17.98c-0.268,3.992,0.084,8.895,1.582,13.671c1.905,6.075,6.046,13.171,15.022,14.815c-0.149-0.035-0.236-0.059-0.236-0.059
		s12.647,0.887,20.302-9.73c6.964-9.658,6.281-16.825,6.343-22.801C46.72,13.745,46.704,13.603,46.685,13.475z"/>
	<path d="M47.209,10.287c-2.341,4.17-6.604,10.711-6.604,10.711l-6.057-3.389l-1.267,3.315l-3.683,2.333l-7.145-5.468l-3.997,4.093
		l-4.542-3.427l-1.981-8.415l-4.07,3.504c0,0-0.885-3.226-2.339-4.969c-5.338,3.713-6.169,39.402,18.841,39.402
		C49.378,47.978,49.893,20.053,47.209,10.287z M40.395,36.677c-7.655,10.617-20.302,9.73-20.302,9.73s0.087,0.023,0.236,0.059
		c-8.977-1.645-13.117-8.74-15.022-14.815c-1.498-4.776-1.85-9.679-1.582-13.671l3.458,2.143l5.838,8.074l8.238,1.016l7.929,11.75
		l-6.063-12.478l-9.752-1.96l-4.982-6.37L3.813,16.91c0.282-2.852,0.881-5.147,1.593-6.43c0.83,1.524,1.337,3.347,1.343,3.371
		l0.485,1.757l1.381-1.188l2.63-2.264l1.546,6.564l0.096,0.405l0.333,0.25l4.542,3.427l0.811,0.612l0.709-0.726l3.283-3.361
		l6.332,4.846l0.639,0.489l0.68-0.432l3.683-2.333l0.324-0.205l0.137-0.357l0.79-2.069l4.893,2.739l0.941,0.526l0.589-0.904
		c0.034-0.054,2.814-4.322,5.113-8.152c0.019,0.128,0.035,0.27,0.053,0.401C46.675,19.852,47.359,27.019,40.395,36.677z"/>
</g>
</svg>
